{"title":"In The Heart of the Sea (2015) DVDScr XVID AC3 HQ Hive-CM8","uid":13057822,"size":1913667844,"categoryP":"video","categoryS":"movies","magnet":"?xt=urn:btih:4928e46369dca25b3d419239603492dcb48b32fe&amp;dn=In+The+Heart+of+the+Sea+%282015%29+DVDScr+XVID+AC3+HQ+Hive-CM8&amp;tr=udp%3A%2F%2Ftracker.leechers-paradise.org%3A6969&amp;tr=udp%3A%2F%2Fzer0day.ch%3A1337&amp;tr=udp%3A%2F%2Fopen.demonii.com%3A1337&amp;tr=udp%3A%2F%2Ftracker.coppersurfer.tk%3A6969&amp;tr=udp%3A%2F%2Fexodus.desync.com%3A6969","seeders":0,"leechers":3,"uploader":"tykoon123","files":3,"time":1450675833,"description":"http://s17.postimg.org/7h4bmu7lb/hr_In_the_Heart_of_the_Sea_1.jpg\r\n\r\nInfo:\r\nThx Hive\r\n\r\nCM8 Doing It Right The First Time \r\n\r\nSource: DVD-Screener Big Thanks M8\r\n\r\n\r\nNotes:\r\n\r\nSource: DVD-Screener Big THX m8\r\n\r\nNotes:\r\nDVDScreener 4 of 40\r\nwill do them all one after each other, 4th hot title\r\n\r\nEncode:\r\nquality was perfect on this.\r\nAll digital watermarks are removed.\r\nFixed brightness,contrast and rgb, and added sharpness.\r\n\r\ngot very nice\r\nenjoy\r\n\r\nVideo: 720x400 @bitrate 1800 2pass\r\nAudio: English AC3 2.0 Stereo\r\nSample: yes included\r\n\r\n\r\n\r\n\r\n \nhttp://www.imdb.com/title/tt1390411/\r\n\r\n\r\nComplete Name                            : In.The.Heart.of.the.Sea.2015.DVDScr.XVID.AC3.HQ.Hive-CM8.avi\r\nFormat                                   : AVI\r\nFormat/Info                              : Audio Video Interleave\r\nFile size                                : 1.77 GiB\r\nDuration                                 : 2h 1mn\r\nOverall bit rate                         : 2 080 Kbps\r\nWriting application                      : Nandub v1.0rc2\r\nWriting library                          : Nandub build 1853/release\r\n\r\nVideo\r\nID                                       : 0\r\nFormat                                   : MPEG-4 Visual\r\nFormat profile                           : Advanced   \r\nFormat settings, BVOP                    : 2\r\nFormat settings, QPel                    : Yes\r\nFormat settings, GMC                     : No warppoints\r\nFormat settings, Matrix                  : Default (H.263)\r\nMuxing mode                              : Packed bitstream\r\nCodec ID                                 : XVID\r\nCodec ID/Hint                            : XviD\r\nDuration                                 : 2h 1mn\r\nBit rate                                 : 1 812 Kbps\r\nWidth                                    : 720 pixels\r\nHeight                                   : 400 pixels\r\nDisplay aspect ratio                     : 16:9\r\nFrame rate                               : 29.970 fps\r\nColor space                              : YUV\r\nChroma subsampling                       : 4:2:0\r\nBit depth                                : 8 bits\r\nScan type                                : Progressive\r\nCompression mode                         : Lossy\r\nBits/(Pixel*Frame)                       : 0.210\r\nStream size                              : 1.54 GiB (87%)\r\nWriting library                          : XviD 1.2.1 (UTC 2008-12-04)\r\n\r\nAudio\r\nID                                       : 1\r\nFormat                                   : AC-3\r\nFormat/Info                              : Audio Coding 3\r\nMode extension                           : CM (complete main)\r\nFormat settings, Endianness              : Big\r\nCodec ID                                 : 2000\r\nDuration                                 : 2h 1mn\r\nBit rate mode                            : Constant\r\nBit rate                                 : 256 Kbps\r\nChannel(s)                               : 2 channels\r\nChannel positions                        : Front: L R\r\nSampling rate                            : 48.0 KHz\r\nBit depth                                : 16 bits\r\nCompression mode                         : Lossy\r\nStream size                              : 223 MiB (12%)\r\nAlignment                                : Split accross interleaves\r\nInterleave, duration                     : 33 ms (1.00 video frame)\r\nInterleave, preload duration             : 500 ms\r\n\r\n\r\n\r\n\r\n\r\nScreens \nhttp://img903.imageshack.us/img903/7493/e3VgA8.png \nhttp://img633.imageshack.us/img633/1538/6DPGLn.png \nhttp://img907.imageshack.us/img907/3276/PGGF9o.png \nhttp://img907.imageshack.us/img907/2471/xlIMZw.png \nhttp://img905.imageshack.us/img905/8628/VDf2oK.png\r\n\r\nPlot\r\n\r\nA recounting of a whaling ship's sinking by a giant whale in 1820 that would inspire the great novel, Moby Dick.\r\n\r\nCast\r\n\r\nChris Hemsworth    ...    Owen Chase\r\nBenjamin Walker    ...    George Pollard\r\nCillian Murphy    ...    Matthew Joy\r\nBrendan Gleeson    ...    Tom Nickerson\r\nBen Whishaw    ...    Herman Melville","torrent":{"xt":"urn:btih:4928e46369dca25b3d419239603492dcb48b32fe","amp;dn":"In+The+Heart+of+the+Sea+%282015%29+DVDScr+XVID+AC3+HQ+Hive-CM8","amp;tr":["udp%3A%2F%2Ftracker.leechers-paradise.org%3A6969","udp%3A%2F%2Fzer0day.ch%3A1337","udp%3A%2F%2Fopen.demonii.com%3A1337","udp%3A%2F%2Ftracker.coppersurfer.tk%3A6969","udp%3A%2F%2Fexodus.desync.com%3A6969"],"infoHash":"4928e46369dca25b3d419239603492dcb48b32fe","infoHashBuffer":{"type":"Buffer","data":[73,40,228,99,105,220,162,91,61,65,146,57,96,52,146,220,180,139,50,254]},"announce":[],"urlList":[]}}